<?xml version="1.0" encoding="UTF-8"?>
<svg version="1.1" viewBox="0 0 2048 274" width="1280" height="1280" xmlns="http://www.w3.org/2000/svg">
<path transform="translate(0)" d="m0 0h2048v274h-2048z" fill="#131212"/>
<path transform="translate(1074,93)" d="m0 0h7l7 4 4 2v-5l1-1 12 1v53l-2 8-6 7-9 3h-15l-9-3-5-6-1-6 4-1 18 5 9-2 2-5 1-7-10 6h-11l-7-4-5-7-2-6v-18l3-8 4-5z" fill="#00A5FD"/>
<path transform="translate(1133,93)" d="m0 0 9 1 9 6v-6l1-1 11 1v57l-4 8-8 5-4 1h-16l-10-4-4-6v-6l8 1 13 4 10-1 2-12-10 5h-10l-6-3-5-6-4-11v-12l3-10 6-7 5-3z" fill="#00A5FD"/>
<path transform="translate(177,93)" d="m0 0 12 1 1 4 7-4 4-1h7l7 3 6 5 4 9v20l-4 8-5 5-5 3h-12l-8-4v22l-1 1h-14v-71z" fill="#888A89"/>
<path transform="translate(578,78)" d="m0 0h15v67l-1 1h-12v-5l-9 5h-12l-7-4-6-7-2-5-1-6v-11l4-11 7-7 7-2 11 1 6 3z" fill="#888A89"/>
<path transform="translate(1699,93)" d="m0 0h11v6l12-6h7l10 5 4 5 3 7v20l-4 8-8 7-2 1h-11l-10-5 1 4v19l-1 1h-12l-1-1v-70z" fill="#00A5FD"/>
<path transform="translate(329,78)" d="m0 0h21l5 12 18 51 1 5h-16l-5-15-28-1-3 11-2 5h-15l3-9 10-29z" fill="#888A89"/>
<path transform="translate(706,77)" d="m0 0h17l3 5 16 45 6 16v3h-14l-3-5-3-10h-28l-5 15h-15l3-9 18-50 4-9z" fill="#00A5FD"/>
<path transform="translate(1612,93)" d="m0 0h11l1 1v5l11-6h9l8 6 2 1 9-6 9-1 8 4 4 6 1 4v39h-13l-1-33-2-7-1-1h-7l-4 5-1 2-1 34h-13l-1-1v-33l-1-7h-9l-4 4-1 4-1 33h-13z" fill="#00A5FD"/>
<path transform="translate(1361,93)" d="m0 0h7l9 3 8 7 4 8 1 5v8l-3 10-6 7-10 5h-14l-10-5-5-6-3-8v-15l5-10 7-6z" fill="#00A5FD"/>
<path transform="translate(1776,93)" d="m0 0h8l10 4 6 5 4 8 1 3v14l-4 9-7 7-7 3h-14l-12-6-4-5-3-12v-8l4-11 5-6 8-4z" fill="#00A5FD"/>
<path transform="translate(1573,93)" d="m0 0h8l9 3 8 7 4 8 1 4v9l-3 10-6 7-10 5h-14l-10-5-5-6-3-9v-13l4-9 5-6 8-4z" fill="#00A5FD"/>
<path transform="translate(866,93)" d="m0 0h7l9 3 8 7 4 9v16l-4 8-5 5-6 4-3 1h-14l-10-5-6-7-3-12 1-10 5-10 7-6z" fill="#00A5FD"/>
<path transform="translate(955,77)" d="m0 0h11l10 3 7 6 3 7v5h-13l-3-6-4-3h-11l-5 5 2 5 10 4 16 5 8 6 3 7v10l-4 7-7 6-6 2h-20l-10-4-6-7-2-4v-6l7-2h6l3 7 5 4 3 1h8l7-3 2-4-1-6-10-4-15-4-9-6-4-8v-8l4-8 10-6z" fill="#00A5FD"/>
<path transform="translate(507,93)" d="m0 0h12l8 2 5 4 2 4 1 33 2 10h-14v-5l-11 5h-12l-7-4-4-6v-9l5-8 11-4 14-4-1-5-2-1h-8l-5 4-9-1-4-3 6-8 5-3z" fill="#888A89"/>
<path transform="translate(381,77)" d="m0 0 14 1v20l8-4 4-1h7l7 3 5 6 1 2v42h-14l-1-36-3-5-4-1-6 3-3 6-1 33h-14z" fill="#888A89"/>
<path transform="translate(1511,77)" d="m0 0h9l10 3 8 6 4 7v2l-8 3h-5l-4-6-6-3h-10l-6 4-3 4-2 7v15l3 9 5 5 5 2 9-1 6-4 3-7 5 1 9 4-3 7-4 5-9 5-4 1h-17l-12-6-7-8-3-7-1-5v-16l4-12 8-9 10-5z" fill="#00A5FD"/>
<path transform="translate(250,93)" d="m0 0h9l9 3 5 4 5 10 1 12-33 1 3 9 4 3 7-1 3-3h8l6 2-1 4-5 5-4 3-4 1h-16l-8-4-6-9-2-7v-13l4-10 4-5 7-4z" fill="#888A89"/>
<path transform="translate(455,93)" d="m0 0h9l9 3 7 8 3 8v10h-33l3 9 5 4 6-1 4-3h7l7 2-2 5-7 6-5 2h-16l-9-5-5-7-2-6v-17l5-10 7-6z" fill="#888A89"/>
<path transform="translate(117,93)" d="m0 0h14l4 10 7 23v2h2l1-8 9-26 3-1 11 1-2 9-11 30-8 22-4 6-5 3-4 1h-12l-1-1-1-10h7l6-3 1-7-13-36-4-11z" fill="#888A89"/>
<path transform="translate(1192,93)" d="m0 0h7l9 3 6 5 4 8 1 5v8h-33l3 9 5 4h6l4-4 10 1 4 2-3 5-6 5-5 2h-15l-8-4-5-6-3-8v-16l4-9 5-6z" fill="#00A5FD"/>
<path transform="translate(1890,93)" d="m0 0h7l9 3 5 4 5 10 1 12h-33l2 8 4 4 2 1h6l4-4 9 1 4 2-2 5-5 4-7 3h-14l-9-5-5-6-2-6v-18l5-10 7-6z" fill="#00A5FD"/>
<path transform="translate(1928,93)" d="m0 0h11l1 1v5l11-6h9l9 5 3 4 1 21v23h-13l-1-1-1-36-3-4-5-1-5 3-3 5-1 34h-13l-1-1v-51z" fill="#00A5FD"/>
<path transform="translate(1816,93)" d="m0 0h7l5 1v5l12-6h8l8 4 4 6 1 4v39h-13l-1-4v-29l-3-7-5-2-5 2-3 4-1 3-1 33h-13l-1-52z" fill="#00A5FD"/>
<path transform="translate(1400,93)" d="m0 0h7l5 1v5l12-6h8l7 3 5 5 1 3v42h-13l-1-36-3-5-5-1-6 2-2 5-1 7-1 28h-12l-1-1z" fill="#00A5FD"/>
<path transform="translate(1034,93)" d="m0 0h8l4 2v51h-12l-1-5-9 5h-12l-8-5-3-6v-41h13l1 37 4 4h6l5-4 2-12 1-25z" fill="#00A5FD"/>
<path transform="translate(757,93)" d="m0 0 12 1 1 34 2 5 3 2 7-1 3-1 2-8 1-31 1-1h9l3 1v52h-12v-5l-10 5h-12l-6-4-4-5-1-5v-38z" fill="#00A5FD"/>
<path transform="translate(70,78)" d="m0 0h54v9l-20 1 1 58h-15l-1-1v-55l1-2h-20z" fill="#888A89"/>
<path transform="translate(1242,93)" d="m0 0h11l8 2 6 4 3 4-7 3h-6l-1-3-3-1h-10l-3 3v3l9 4 13 4 6 4 3 4v11l-7 8-7 3h-17l-10-5-5-6 1-2 7-2h6l3 3 3 1h8l4-3v-4l-21-7-6-4-3-5v-7l4-7 7-4z" fill="#00A5FD"/>
<path transform="translate(2e3 78)" d="m0 0h2v15l9 1v9l-9 1 1 31h8l1 1v7l-3 3h-13l-7-6-1-2v-34h-5l-1-1v-9l1-1h5v-8z" fill="#00A5FD"/>
<path transform="translate(1296,78)" d="m0 0h1l1 15h8l1 1v9l-9 1v13l1 18 9 1v7l-3 3h-13l-6-4-2-5v-33h-5l-1-1v-9l1-1h5v-8z" fill="#00A5FD"/>
<path transform="translate(828,78)" d="m0 0h1v15l10 1v9l-9 1v29l1 2h7l1 1v8l-3 2h-12l-7-5-1-3v-34h-5l-1-1v-9l1-1h5v-8z" fill="#00A5FD"/>
<path transform="translate(1315,93)" d="m0 0h12l1 1v52h-13z" fill="#00A5FD"/>
<path transform="translate(1576,103)" d="m0 0 9 3 4 6 1 4v8l-4 8-3 3-8 1-7-4-3-6v-12l3-6 5-4z" fill="#131212"/>
<path transform="translate(1775,104)" d="m0 0h9l6 5 2 5v11l-4 8-5 3h-6l-6-4-3-4-1-4v-7l2-7 5-5z" fill="#131212"/>
<path transform="translate(1360,104)" d="m0 0h8l6 4 3 9-1 10-4 6-5 3-8-1-5-5-2-4v-12l3-6z" fill="#131212"/>
<path transform="translate(864,104)" d="m0 0h9l6 5 2 4v13l-3 6-6 4h-6l-6-4-3-5-1-8 2-9 5-5z" fill="#131212"/>
<path transform="translate(1718,104)" d="m0 0h8l5 4 3 9-1 10-3 6-5 3-7-1-5-5-2-5v-10l3-7z" fill="#131212"/>
<path transform="translate(1135,104)" d="m0 0h8l5 4 2 5v14l-4 6-4 3h-6l-5-4-3-7v-9l2-7z" fill="#131212"/>
<path transform="translate(1077,104)" d="m0 0h7l6 5 2 6v9l-3 7-4 4-2 1h-6l-6-6-1-3v-14l3-6z" fill="#131212"/>
<path transform="translate(198,104)" d="m0 0h6l5 5 2 4v14l-4 7-4 2-6-1-6-7-1-3v-11l3-6z" fill="#131212"/>
<path transform="translate(565,104)" d="m0 0h6l6 5 2 8-1 10-4 6-4 3-6-1-5-6-2-8 1-9 4-6z" fill="#131212"/>
<path transform="translate(713,90)" d="m0 0h2l9 27v3h-20l1-8z" fill="#131212"/>
<path transform="translate(338,91)" d="m0 0h2l9 26v3h-20l3-11z" fill="#131212"/>
<path transform="translate(904,117)" d="m0 0h22l3 1v9l-4 1h-20l-2-1v-9z" fill="#00A5FD"/>
<path transform="translate(630,117)" d="m0 0h23l4 2v8h-28v-9z" fill="#888A89"/>
<path transform="translate(515,121)" d="m0 0h5v8l-4 5-4 2-5-1-3-3-1-5 5-4z" fill="#131212"/>
<path transform="translate(1893,103)" d="m0 0 6 2 4 4 1 5-3 1h-15l-2-1 1-6 5-4z" fill="#131212"/>
<path transform="translate(1195,103)" d="m0 0 6 2 4 4 1 5-4 1h-14l-2-1 1-5 5-5z" fill="#131212"/>
<path transform="translate(252,104)" d="m0 0h6l5 4 2 6-1 1h-18l1-7z" fill="#131212"/>
<path transform="translate(457,104)" d="m0 0h6l5 5 1 6h-17l-2-1 2-7z" fill="#131212"/>
<path transform="translate(1315,77)" d="m0 0 13 1v10h-12l-1-1z" fill="#00A5FD"/>
</svg>
